<svg width="154" height="34" viewBox="0 0 154 34" fill="none" xmlns="http://www.w3.org/2000/svg">
<path d="M11.7077 25H1.21972V23.224L9.42772 10.144V10.048H1.33972V8.2H11.5877V9.976L3.42772 23.056V23.152H11.7077V25ZM29.1433 25.336C25.6873 25.336 23.6233 22.624 23.6233 18.136V15.064C23.6233 10.6 25.6873 7.864 29.1433 7.864C32.6233 7.864 34.6633 10.552 34.6633 15.016V18.208C34.6633 22.672 32.6473 25.336 29.1433 25.336ZM29.1433 23.536C31.4233 23.536 32.7673 21.568 32.7673 18.28V14.92C32.7673 11.608 31.4233 9.664 29.1433 9.664C26.8633 9.664 25.5193 11.632 25.5193 14.92V18.28C25.5193 21.592 26.8633 23.536 29.1433 23.536ZM52.4777 25.336C49.0217 25.336 46.9577 22.624 46.9577 18.136V15.064C46.9577 10.6 49.0217 7.864 52.4777 7.864C55.9577 7.864 57.9977 10.552 57.9977 15.016V18.208C57.9977 22.672 55.9817 25.336 52.4777 25.336ZM52.4777 23.536C54.7577 23.536 56.1017 21.568 56.1017 18.28V14.92C56.1017 11.608 54.7577 9.664 52.4777 9.664C50.1977 9.664 48.8537 11.632 48.8537 14.92V18.28C48.8537 21.592 50.1977 23.536 52.4777 23.536ZM72.6223 25H70.7503V8.2H72.7903L77.3743 20.728H77.4703L82.0303 8.2H84.0463V25H82.2223V12.616H82.1503L78.2143 23.416H76.6063L72.6703 12.616H72.6223V25ZM107.158 25H97.438V8.2H107.158V10H99.334V15.688H105.886V17.488H99.334V23.2H107.158V25ZM121.918 25H120.022V8.2H125.446C128.782 8.2 130.678 9.952 130.678 13.072C130.678 15.712 129.31 17.368 126.79 17.776L130.702 25H128.734L124.87 17.968H121.918V25ZM121.918 10V16.168H125.302C127.774 16.168 128.854 15.064 128.854 13.072C128.854 11.08 127.774 10 125.302 10H121.918ZM147.463 25.336C144.343 25.336 142.351 23.56 142.159 20.584H143.959C144.223 22.432 145.519 23.536 147.487 23.536C149.527 23.536 150.799 22.384 150.799 20.536C150.799 18.832 149.887 17.896 147.919 17.392L146.575 17.032C144.247 16.432 142.495 15.064 142.495 12.592C142.495 9.712 144.463 7.864 147.463 7.864C150.319 7.864 152.191 9.592 152.383 12.376H150.583C150.343 10.672 149.215 9.664 147.487 9.664C145.543 9.664 144.391 10.72 144.391 12.496C144.391 13.912 145.231 14.848 147.199 15.376L148.519 15.76C151.495 16.6 152.695 18.016 152.695 20.464C152.695 23.392 150.679 25.336 147.463 25.336Z" fill="white"/>
</svg>
