<svg xmlns="http://www.w3.org/2000/svg" viewBox="0 0 512 512" fill="currentColor">
  <!-- Earth icon - Flaticon style -->
  <circle cx="256" cy="256" r="240" fill="#4A90E2" opacity="0.9"/>
  <path d="M256 16C123.45 16 16 123.45 16 256s107.45 240 240 240 240-107.45 240-240S388.55 16 256 16zm0 448c-114.69 0-208-93.31-208-208S141.31 48 256 48s208 93.31 208 208-93.31 208-208 208z" fill="#2E5F8E"/>
  <path d="M180 140c-15 0-30 10-30 25s15 25 30 25c20 0 40-5 60-15 10-5 15-15 15-25s-15-20-25-20c-15 0-35 10-50 10z" fill="#5FB85F"/>
  <path d="M350 200c-20-10-40-5-50 10-10 15-5 35 10 45 20 10 40 5 50-10 10-15 5-35-10-45z" fill="#5FB85F"/>
  <path d="M220 300c-25 0-45 20-45 45s20 45 45 45c30 0 55-20 55-45s-25-45-55-45z" fill="#5FB85F"/>
</svg>

